<svg width="27" height="39" viewBox="0 0 27 39" fill="none" xmlns="http://www.w3.org/2000/svg">
<path d="M18.2448 26.6126C18.326 26.6838 18.3905 26.7682 18.4345 26.8611C18.4785 26.954 18.5012 27.0536 18.5012 27.1542C18.5012 27.2547 18.4785 27.3543 18.4345 27.4473C18.3905 27.5402 18.326 27.6246 18.2448 27.6957C18.1635 27.7668 18.0669 27.8232 17.9607 27.8617C17.8545 27.9002 17.7407 27.92 17.6257 27.92C17.5107 27.92 17.3969 27.9002 17.2907 27.8617C17.1844 27.8232 17.0879 27.7668 17.0066 27.6957L8.25663 20.0415C8.17527 19.9705 8.11073 19.886 8.0667 19.7931C8.02267 19.7002 8 19.6006 8 19.5C8 19.3994 8.02267 19.2998 8.0667 19.2069C8.11073 19.114 8.17527 19.0296 8.25663 18.9585L17.0066 11.3043C17.1708 11.1607 17.3935 11.08 17.6257 11.08C17.8579 11.08 18.0806 11.1607 18.2448 11.3043C18.4089 11.4479 18.5012 11.6427 18.5012 11.8459C18.5012 12.049 18.4089 12.2438 18.2448 12.3874L10.1127 19.5L18.2448 26.6126Z" fill="#1C1917"/>
</svg>
