<svg width="16" height="17" viewBox="0 0 16 17" fill="none" xmlns="http://www.w3.org/2000/svg">
<path d="M13.354 6.84268L8.35403 11.8427C8.30759 11.8892 8.25245 11.926 8.19175 11.9512C8.13105 11.9764 8.06599 11.9893 8.00028 11.9893C7.93457 11.9893 7.86951 11.9764 7.80881 11.9512C7.74811 11.926 7.69296 11.8892 7.64653 11.8427L2.64653 6.84268C2.55271 6.74886 2.5 6.62161 2.5 6.48893C2.5 6.35624 2.55271 6.229 2.64653 6.13518C2.74035 6.04135 2.8676 5.98865 3.00028 5.98865C3.13296 5.98865 3.26021 6.04135 3.35403 6.13518L8.00028 10.7821L12.6465 6.13518C12.693 6.08872 12.7481 6.05187 12.8088 6.02673C12.8695 6.00159 12.9346 5.98865 13.0003 5.98865C13.066 5.98865 13.131 6.00159 13.1917 6.02673C13.2524 6.05187 13.3076 6.08872 13.354 6.13518C13.4005 6.18163 13.4373 6.23678 13.4625 6.29748C13.4876 6.35817 13.5006 6.42323 13.5006 6.48893C13.5006 6.55462 13.4876 6.61968 13.4625 6.68037C13.4373 6.74107 13.4005 6.79622 13.354 6.84268Z" fill="#EEF2FF"/>
</svg>
