<svg width="20" height="16" viewBox="0 0 20 16" fill="none" xmlns="http://www.w3.org/2000/svg">
<path d="M4.21249 0.70474C4.15761 0.64287 4.09099 0.592509 4.01649 0.556576C3.942 0.520643 3.86111 0.499852 3.77853 0.495409C3.69594 0.490966 3.61329 0.502959 3.53537 0.530693C3.45746 0.558426 3.38582 0.601349 3.32461 0.656974C3.2634 0.712598 3.21384 0.779817 3.17881 0.854736C3.14377 0.929654 3.12395 1.01078 3.1205 1.09342C3.11704 1.17605 3.13003 1.25855 3.15869 1.33613C3.18736 1.41371 3.23114 1.48483 3.28749 1.54536L4.79062 3.19927C1.95312 4.94068 0.732805 7.62505 0.678899 7.74693C0.643362 7.82686 0.625 7.91336 0.625 8.00083C0.625 8.08831 0.643362 8.17481 0.678899 8.25474C0.706243 8.31646 1.36796 9.78365 2.83905 11.2547C4.79921 13.2141 7.27499 14.2501 9.99999 14.2501C11.4005 14.258 12.7868 13.9697 14.068 13.404L15.7867 15.2954C15.8416 15.3572 15.9082 15.4076 15.9827 15.4435C16.0572 15.4795 16.1381 15.5003 16.2207 15.5047C16.3033 15.5091 16.3859 15.4971 16.4638 15.4694C16.5417 15.4417 16.6134 15.3988 16.6746 15.3431C16.7358 15.2875 16.7854 15.2203 16.8204 15.1454C16.8554 15.0705 16.8753 14.9893 16.8787 14.9067C16.8822 14.8241 16.8692 14.7416 16.8405 14.664C16.8118 14.5864 16.7681 14.5153 16.7117 14.4547L4.21249 0.70474ZM7.91015 6.62974L11.1656 10.2118C10.6754 10.4697 10.1134 10.5575 9.56783 10.4613C9.02229 10.3652 8.52413 10.0906 8.15157 9.68068C7.77901 9.27075 7.55314 8.74868 7.50945 8.19647C7.46575 7.64426 7.6067 7.09317 7.91015 6.62974ZM9.99999 13.0001C7.5953 13.0001 5.49452 12.1258 3.75546 10.4024C3.04164 9.69301 2.43454 8.88379 1.95312 8.00005C2.31952 7.31333 3.48905 5.39146 5.65234 4.14224L7.05859 5.68521C6.51416 6.38248 6.23377 7.24977 6.26697 8.13378C6.30017 9.01779 6.64483 9.86161 7.24002 10.5161C7.83521 11.1705 8.64261 11.5935 9.51952 11.7103C10.3964 11.827 11.2864 11.6299 12.032 11.154L13.1828 12.4196C12.1672 12.8092 11.0878 13.0061 9.99999 13.0001ZM10.4687 5.54458C10.3059 5.5135 10.162 5.419 10.0689 5.28187C9.97568 5.14473 9.94079 4.97619 9.97187 4.81333C10.0029 4.65047 10.0975 4.50663 10.2346 4.41345C10.3717 4.32027 10.5403 4.28538 10.7031 4.31646C11.4997 4.47089 12.225 4.87868 12.7708 5.47903C13.3167 6.07937 13.6539 6.84008 13.732 7.64771C13.7475 7.81274 13.6967 7.97715 13.5909 8.10476C13.4851 8.23237 13.333 8.31274 13.168 8.32818C13.1484 8.32932 13.1289 8.32932 13.1094 8.32818C12.9532 8.32885 12.8024 8.27099 12.6867 8.16601C12.571 8.06103 12.4988 7.91654 12.4844 7.76099C12.4318 7.2238 12.2072 6.71793 11.844 6.3186C11.4809 5.91927 10.9985 5.64781 10.4687 5.54458ZM19.3187 8.25474C19.2859 8.32818 18.4945 10.0805 16.7125 11.6766C16.6516 11.7329 16.5801 11.7765 16.5022 11.8049C16.4243 11.8332 16.3415 11.8458 16.2587 11.8419C16.1759 11.838 16.0947 11.8176 16.0198 11.782C15.9449 11.7464 15.8779 11.6962 15.8226 11.6345C15.7673 11.5727 15.7249 11.5005 15.6977 11.4222C15.6706 11.3438 15.6593 11.2609 15.6645 11.1781C15.6698 11.0954 15.6914 11.0145 15.7282 10.9402C15.765 10.8659 15.8162 10.7997 15.8789 10.7454C16.7532 9.95991 17.4876 9.03159 18.0508 8.00005C17.5683 7.1155 16.9599 6.30574 16.2445 5.59615C14.5055 3.87427 12.4047 3.00005 9.99999 3.00005C9.49332 2.99943 8.98745 3.04046 8.48749 3.12271C8.40619 3.13709 8.32284 3.13521 8.24227 3.1172C8.1617 3.09918 8.08549 3.06538 8.01805 3.01774C7.95062 2.97011 7.89329 2.90958 7.84938 2.83966C7.80547 2.76975 7.77584 2.69182 7.76222 2.61039C7.7486 2.52896 7.75124 2.44563 7.77 2.36523C7.78877 2.28482 7.82327 2.20894 7.87153 2.14194C7.91979 2.07495 7.98085 2.01819 8.05117 1.97493C8.12149 1.93166 8.19969 1.90276 8.28124 1.8899C8.84934 1.79609 9.4242 1.74932 9.99999 1.75005C12.725 1.75005 15.2008 2.78599 17.1609 4.74615C18.632 6.21724 19.2937 7.68521 19.3211 7.74693C19.3566 7.82686 19.375 7.91336 19.375 8.00083C19.375 8.08831 19.3566 8.17481 19.3211 8.25474H19.3187Z" fill="#A8A29E"/>
</svg>
