<svg width="21" height="21" viewBox="0 0 21 21" fill="none" xmlns="http://www.w3.org/2000/svg">
<path d="M3.9375 4.59375V16.4062C3.9375 16.5803 3.86836 16.7472 3.74529 16.8703C3.62222 16.9934 3.4553 17.0625 3.28125 17.0625C3.1072 17.0625 2.94028 16.9934 2.81721 16.8703C2.69414 16.7472 2.625 16.5803 2.625 16.4062V4.59375C2.625 4.4197 2.69414 4.25278 2.81721 4.12971C2.94028 4.00664 3.1072 3.9375 3.28125 3.9375C3.4553 3.9375 3.62222 4.00664 3.74529 4.12971C3.86836 4.25278 3.9375 4.4197 3.9375 4.59375ZM11.4844 9.06445L9.84375 9.59766V7.875C9.84375 7.70095 9.77461 7.53403 9.65154 7.41096C9.52847 7.28789 9.36155 7.21875 9.1875 7.21875C9.01345 7.21875 8.84653 7.28789 8.72346 7.41096C8.60039 7.53403 8.53125 7.70095 8.53125 7.875V9.59766L6.89062 9.06445C6.72506 9.01006 6.54467 9.02367 6.38914 9.10228C6.23361 9.18089 6.11568 9.31807 6.06129 9.48363C6.0069 9.6492 6.02051 9.82958 6.09912 9.98512C6.17773 10.1406 6.31491 10.2586 6.48047 10.313L8.12109 10.8454L7.10883 12.2399C7.05533 12.3094 7.01631 12.3889 6.99408 12.4738C6.97184 12.5586 6.96684 12.647 6.97936 12.7339C6.99189 12.8207 7.02169 12.9041 7.06701 12.9792C7.11232 13.0543 7.17223 13.1195 7.24319 13.1711C7.31416 13.2226 7.39473 13.2594 7.48016 13.2793C7.56559 13.2992 7.65413 13.3017 7.74056 13.2868C7.82699 13.2719 7.90955 13.2398 7.98337 13.1924C8.05718 13.145 8.12075 13.0833 8.17031 13.011L9.18258 11.6164L10.1948 13.011C10.2444 13.0833 10.308 13.145 10.3818 13.1924C10.4556 13.2398 10.5382 13.2719 10.6246 13.2868C10.711 13.3017 10.7996 13.2992 10.885 13.2793C10.9704 13.2594 11.051 13.2226 11.122 13.1711C11.1929 13.1195 11.2528 13.0543 11.2982 12.9792C11.3435 12.9041 11.3733 12.8207 11.3858 12.7339C11.3983 12.647 11.3933 12.5586 11.3711 12.4738C11.3488 12.3889 11.3098 12.3094 11.2563 12.2399L10.2441 10.8454L11.8847 10.313C12.0429 10.2541 12.1724 10.1365 12.2462 9.98464C12.32 9.83277 12.3324 9.6583 12.2808 9.49752C12.2293 9.33674 12.1177 9.20202 11.9694 9.12136C11.8211 9.0407 11.6473 9.02032 11.4844 9.06445ZM20.1797 9.48609C20.1259 9.32204 20.0096 9.18579 19.8561 9.10686C19.7025 9.02794 19.5241 9.0127 19.3594 9.06445L17.7188 9.59766V7.875C17.7188 7.70095 17.6496 7.53403 17.5265 7.41096C17.4035 7.28789 17.2365 7.21875 17.0625 7.21875C16.8885 7.21875 16.7215 7.28789 16.5985 7.41096C16.4754 7.53403 16.4062 7.70095 16.4062 7.875V9.59766L14.7656 9.06527C14.6001 9.01143 14.4199 9.02556 14.2647 9.10455C14.1096 9.18355 13.9922 9.32094 13.9383 9.4865C13.8845 9.65207 13.8986 9.83224 13.9776 9.98739C14.0566 10.1425 14.194 10.2599 14.3596 10.3138L16.0002 10.8462L14.9879 12.2407C14.9344 12.3102 14.8954 12.3897 14.8732 12.4746C14.8509 12.5594 14.8459 12.6479 14.8585 12.7347C14.871 12.8215 14.9008 12.9049 14.9461 12.98C14.9914 13.0551 15.0513 13.1204 15.1223 13.1719C15.1933 13.2235 15.2738 13.2603 15.3593 13.2801C15.4447 13.3 15.5332 13.3026 15.6197 13.2876C15.7061 13.2727 15.7887 13.2406 15.8625 13.1932C15.9363 13.1459 15.9998 13.0842 16.0494 13.0118L17.0617 11.6173L18.0739 13.0118C18.1235 13.0842 18.1871 13.1459 18.2609 13.1932C18.3347 13.2406 18.4173 13.2727 18.5037 13.2876C18.5901 13.3026 18.6787 13.3 18.7641 13.2801C18.8495 13.2603 18.9301 13.2235 19.0011 13.1719C19.072 13.1204 19.1319 13.0551 19.1773 12.98C19.2226 12.9049 19.2524 12.8215 19.2649 12.7347C19.2774 12.6479 19.2724 12.5594 19.2502 12.4746C19.2279 12.3897 19.1889 12.3102 19.1354 12.2407L18.1232 10.8462L19.7638 10.3138C19.9285 10.2589 20.0647 10.141 20.1427 9.98585C20.2206 9.83071 20.2339 9.65101 20.1797 9.48609Z" fill="#EEF2FF"/>
</svg>
