<svg width="33" height="37" viewBox="0 0 33 37" fill="none" xmlns="http://www.w3.org/2000/svg">
<path d="M15.9746 0.934559C15.9356 0.944324 15.7061 0.978504 15.4619 1.0078C15.0225 1.06639 14.6758 1.14452 14.2656 1.28612C13.9531 1.39354 13.001 1.85741 12.8203 1.99413C11.9512 2.63378 11.6631 2.90233 11.1895 3.51757C10.6768 4.18651 9.91993 5.49511 9.91993 5.71483C9.91993 5.78807 10.0225 5.84179 10.1592 5.84179C10.2031 5.84179 10.5059 5.92968 10.8281 6.0371C11.1455 6.1494 11.4824 6.25682 11.5703 6.28612C11.6533 6.31054 11.7266 6.3496 11.7266 6.37401C11.7266 6.39354 11.7559 6.41307 11.79 6.41307C11.8193 6.41307 11.9902 6.48143 12.166 6.55956C13.0547 6.96972 13.2402 7.01854 13.2402 6.84764C13.2402 6.74999 13.8067 6.0078 14.1143 5.70018C14.4561 5.35839 14.8516 5.08983 15.2031 4.95311C16.0234 4.63573 17.0684 4.70409 17.7959 5.11913C17.9229 5.19725 18.0449 5.25585 18.0645 5.25585C18.1426 5.25585 18.8164 5.95897 18.9971 6.22264C19.4609 6.90624 19.666 7.42382 19.8809 8.42968C19.9639 8.82518 20.0713 10.0849 20.0713 10.6758C20.0713 11.2715 19.9688 12.3457 19.8613 12.873C19.6953 13.6738 19.6709 13.791 19.583 14.1865C19.5342 14.4111 19.4756 14.6162 19.4463 14.6455C19.3926 14.6992 19.2559 14.4502 19.1045 14.001C19.0459 13.8301 18.9531 13.6006 18.8994 13.4883C18.7432 13.1807 18.2695 12.4287 18.1133 12.248C18.04 12.1601 17.9766 12.0674 17.9766 12.0381C17.9766 11.9062 15.9893 9.99218 15.8477 9.99218C15.8379 9.99218 15.7647 9.93847 15.6914 9.87011C15.6182 9.80175 15.54 9.74804 15.5205 9.74804C15.4961 9.74804 15.3545 9.65038 15.2031 9.53807C14.8955 9.29882 14.1875 8.84472 13.9727 8.74218C13.9336 8.72264 13.8115 8.6494 13.7041 8.58104C13.4795 8.43944 12.8887 8.13671 12.8399 8.13671C12.8203 8.13671 12.669 8.07323 12.4981 7.99511C12.3272 7.92186 12.1025 7.82421 11.9951 7.78026C11.8877 7.7412 11.7119 7.67284 11.6045 7.63378C11.0576 7.4287 10.5693 7.2578 10.5156 7.2578C10.4815 7.2578 10.2227 7.18944 9.9297 7.11132C8.42091 6.68163 8.29396 6.6621 6.90235 6.6621L5.64747 6.65722L5.01759 6.833C4.67579 6.93065 4.36817 7.02831 4.33399 7.05272C4.3047 7.07225 4.19239 7.12108 4.08497 7.15526C3.78712 7.2578 3.3672 7.458 3.20118 7.58495C3.11817 7.64843 3.03517 7.69725 3.01564 7.69725C2.9131 7.69725 2.30763 8.19042 2.00489 8.52245C1.31153 9.26952 0.789073 10.3096 0.491222 11.5303C0.413097 11.8672 0.378917 13.4053 0.442394 13.8008C0.559581 14.5234 0.593761 14.6748 0.754894 15.124C1.07716 16.0224 1.51661 16.7891 2.16603 17.6045C2.65431 18.2148 2.59571 18.2051 3.10841 17.7217C3.35255 17.4971 3.60157 17.2724 3.66993 17.2285C3.73829 17.1846 4.07521 16.9209 4.417 16.6426C4.76368 16.3594 5.15431 16.0615 5.28614 15.9736L5.53028 15.8125L5.19825 15.417C4.5879 14.6894 4.45607 14.4697 4.25099 13.8252C4.12892 13.4297 4.11915 12.4922 4.24122 12.126C4.48048 11.3838 4.97853 10.8808 5.73048 10.6269C6.0381 10.5244 6.1211 10.5195 7.08302 10.5391C7.81056 10.5488 8.12794 10.5732 8.17189 10.6172C8.20118 10.6465 8.29396 10.6758 8.3672 10.6758C8.5088 10.6758 9.23145 10.8418 9.40724 10.9199C9.46095 10.9394 9.64649 11.0078 9.82228 11.0664C9.99806 11.125 10.1641 11.1933 10.1885 11.2129C10.2178 11.2324 10.3057 11.2617 10.3838 11.2812C10.5742 11.3252 12.2149 12.1357 12.5322 12.3408C12.7568 12.4873 13.3037 12.8486 13.5527 13.0195C13.7334 13.1465 14.4365 13.6738 14.4609 13.7031C14.4756 13.7178 14.7149 13.9277 14.9981 14.1621C15.2813 14.4014 15.5205 14.6162 15.5303 14.6406C15.5352 14.665 15.5059 14.7139 15.457 14.748C15.3887 14.8017 15.1152 14.8066 14.1973 14.7871C13.2402 14.7676 12.9424 14.7822 12.6006 14.8457C12.3711 14.8896 12.083 14.9238 11.9561 14.9238C11.834 14.9238 11.6729 14.9482 11.5947 14.9775C11.5215 15.0068 11.3262 15.0459 11.165 15.0703C10.7451 15.1338 10.2373 15.2412 9.89552 15.3389C9.73438 15.3828 9.53907 15.4365 9.45606 15.4609C9.23634 15.5146 8.74317 15.6855 8.31837 15.8564C7.52735 16.1689 5.70607 17.1846 5.29591 17.5459C5.19337 17.6338 5.09083 17.707 5.06642 17.707C5.042 17.707 4.93946 17.7803 4.84181 17.8633C4.73927 17.9512 4.55372 18.0976 4.43165 18.1904C3.98732 18.5127 2.58107 19.9726 2.24903 20.4512C1.36036 21.7256 1.08204 22.2871 0.642589 23.6933C0.422863 24.3867 0.422863 26.2764 0.642589 26.9599C1.17482 28.6152 1.81935 29.4844 3.25489 30.4805C3.69923 30.7881 4.7881 31.2226 5.40333 31.3349C6.05274 31.457 6.53614 31.4863 7.4297 31.4619C8.44044 31.4375 8.57716 31.4131 8.52833 31.2861C8.51368 31.2471 8.45509 31.0469 8.39649 30.8418C8.14747 29.9238 8.02052 29.3525 7.96681 28.9521C7.94239 28.7715 7.89845 28.4199 7.86427 28.1709L7.80567 27.7217L6.9463 27.7021C6.03321 27.6875 5.95509 27.6728 5.51075 27.4092C5.05177 27.1357 4.45118 26.4326 4.45118 26.164C4.45118 26.1201 4.417 26.0176 4.37794 25.9394C4.2754 25.7441 4.2754 24.7529 4.37794 24.5088C4.417 24.416 4.45118 24.2988 4.45118 24.25C4.45118 24.2012 4.48536 24.0986 4.52442 24.0254C4.56349 23.9473 4.59767 23.8496 4.59767 23.8105C4.59767 23.7666 4.62208 23.708 4.65138 23.6787C4.68067 23.6494 4.7295 23.581 4.76368 23.5273C5.17872 22.7998 6.23341 21.6963 7.06837 21.1006C8.06446 20.3926 8.75782 20.0068 9.73438 19.6162C10.833 19.1767 11.7315 18.9277 11.8486 19.0254C11.9121 19.0791 11.8877 19.3183 11.8242 19.3183C11.8047 19.3183 11.7022 19.4453 11.5996 19.5967C11.4922 19.7529 11.2578 20.0996 11.0674 20.373C10.8818 20.6416 10.6963 20.915 10.6572 20.9834C10.2959 21.5937 10.169 21.8476 9.93946 22.4092C9.79298 22.7607 9.67579 23.0879 9.67579 23.1318C9.67579 23.1758 9.64161 23.293 9.60255 23.3857C9.56349 23.4834 9.52931 23.625 9.52931 23.7031C9.52931 23.7764 9.50978 23.8594 9.48048 23.8887C9.43653 23.9326 9.39747 24.1182 9.26075 25.0068C9.22169 25.2461 9.16798 25.5781 9.14357 25.7392C9.07521 26.1055 9.08009 28.293 9.14357 28.6201C9.17286 28.7519 9.21192 28.9961 9.23145 29.1572C9.28517 29.5137 9.36329 29.8457 9.63185 30.793C10.1152 32.5166 11.2529 34.3769 12.4199 35.3437C13.2988 36.081 14.0361 36.4424 15.0957 36.667C15.5156 36.7598 16.6045 36.8623 16.7119 36.8281C16.751 36.8135 17.0244 36.7793 17.3174 36.7549C18.0303 36.6914 18.5918 36.5498 19.1143 36.3008C19.2656 36.2226 19.4121 36.164 19.4365 36.164C19.4561 36.164 19.7051 36.0127 19.9834 35.8271C20.9942 35.1582 21.8975 34.1523 22.4199 33.1123C22.5127 32.9219 22.6006 32.7607 22.6152 32.7461C22.6738 32.6875 22.8106 32.4531 22.8106 32.4043C22.8106 32.375 22.752 32.331 22.6787 32.3017C22.6006 32.2773 22.4785 32.2236 22.3955 32.1894C22.3174 32.1504 22.127 32.082 21.9805 32.0381C21.834 31.9892 21.668 31.9209 21.6143 31.8818C21.5606 31.8476 21.4775 31.8183 21.4336 31.8183C21.3848 31.8183 21.3067 31.7988 21.2578 31.7744C21.2139 31.75 21.0772 31.6865 20.9551 31.6328C20.833 31.5791 20.4961 31.418 20.2031 31.2764C19.6221 30.998 19.5781 30.998 19.4365 31.2715C19.3926 31.3545 19.2998 31.501 19.2266 31.5937C19.1582 31.6865 19.0996 31.7744 19.0996 31.789C19.0996 31.8281 18.9092 32.0576 18.7236 32.2383C18.5283 32.4336 17.9326 32.7949 17.625 32.9121C17.3418 33.0146 16.5313 33.1025 16.1943 33.0635C15.4424 32.9707 14.5928 32.4385 14.1387 31.7695C13.8457 31.3398 13.7822 31.2373 13.6162 30.9248C13.5137 30.7441 13.4356 30.5635 13.4356 30.5293C13.4356 30.4902 13.4063 30.3535 13.3672 30.2265C13.3281 30.0947 13.2744 29.8652 13.2451 29.7187C13.2158 29.5723 13.1572 29.2939 13.1182 29.1084C13.0742 28.918 13.0205 28.5469 12.9961 28.2783C12.9717 28.0098 12.9277 27.5996 12.9033 27.3701C12.874 27.0918 12.874 26.7353 12.9082 26.3447C12.9326 26.0127 12.9717 25.5098 12.9961 25.2265C13.0596 24.3525 13.2256 23.5322 13.3623 23.4199C13.4258 23.3662 13.4551 23.4004 13.5576 23.6348C13.626 23.7861 13.6797 23.9424 13.6797 23.9863C13.6797 24.2305 14.3828 25.4267 14.9395 26.125C15.3447 26.6377 16.1943 27.4922 16.6045 27.8047C17.1074 28.1904 17.7324 28.6445 17.7617 28.6445C17.8008 28.6445 18.0986 28.8594 18.1133 28.8984C18.1231 28.9228 18.1524 28.9375 18.1817 28.9375C18.2061 28.9375 18.2891 28.9765 18.3574 29.0303C18.4307 29.0791 18.6748 29.2158 18.9043 29.333C19.1338 29.4453 19.3535 29.5674 19.3926 29.5967C19.4951 29.6748 21.043 30.3584 21.2236 30.4072C21.3067 30.4267 21.5899 30.5244 21.8584 30.6221C23.0693 31.0664 23.9287 31.2568 25.0567 31.3398C25.9014 31.3984 26.9658 31.3496 27.4785 31.2275C29.544 30.7441 31.0576 29.6064 31.8731 27.9316C32.0879 27.4873 32.1611 27.2871 32.332 26.667C32.415 26.3789 32.4297 26.1592 32.4297 25.2217C32.4297 24.0937 32.4248 24.0596 32.21 23.3662C32.1709 23.2392 32.1367 23.1123 32.1367 23.0781C32.1367 23.0098 31.7168 22.1406 31.5215 21.8135C31.419 21.6328 31.1895 21.3105 31.0234 21.1006C31.0039 21.0713 30.9307 20.9639 30.8672 20.8564C30.8037 20.749 30.7354 20.6514 30.7207 20.6367C30.6572 20.583 30.335 20.168 30.3252 20.124C30.3008 20.0557 30.169 19.9043 30.1299 19.9043C30.1152 19.9043 30.0371 19.9971 29.959 20.1094C29.8809 20.2217 29.7295 20.3926 29.627 20.4902C29.5195 20.583 29.3535 20.7392 29.2608 20.832C29.1631 20.9297 28.9336 21.1299 28.7432 21.2764C28.5576 21.4277 28.3721 21.584 28.333 21.6279C28.2988 21.6767 28.2402 21.7109 28.2061 21.7109C28.1768 21.7109 28.0205 21.8232 27.8643 21.9599C27.708 22.0918 27.5322 22.2383 27.4688 22.2822C27.4053 22.3213 27.3516 22.375 27.3516 22.3945C27.3516 22.4189 27.459 22.541 27.5908 22.6631C27.7275 22.79 27.8692 22.9658 27.9131 23.0586C27.9522 23.1465 28.04 23.2832 28.0986 23.3564C28.2402 23.5322 28.4404 23.9131 28.5674 24.25C28.6504 24.4697 28.6699 24.6308 28.6699 25.1387C28.6699 25.4805 28.6504 25.7685 28.626 25.7881C28.6016 25.8027 28.5625 25.8857 28.5479 25.9736C28.4404 26.457 27.8838 27.082 27.3565 27.3066C26.7022 27.5849 25.4815 27.5898 24.3486 27.3262C23.5527 27.1406 23.0938 27.0137 22.8106 26.9111C22.3467 26.7402 22.127 26.6572 21.7217 26.4765C21.6192 26.4326 21.5117 26.3984 21.4824 26.3984C21.4043 26.3984 21.0186 26.1738 19.9492 25.5C19.2022 25.0312 18.4404 24.4648 17.7813 23.8887C17.3223 23.4883 17.1953 23.3662 17.1953 23.3223C17.1953 23.2441 17.4736 23.2246 18.8799 23.2197C19.6856 23.2197 20.5303 23.2002 20.7598 23.1758C21.7266 23.0732 22.1758 23 22.7617 22.834C22.8545 22.8047 23.1182 22.7314 23.3477 22.668C23.5772 22.6045 23.9043 22.5019 24.0801 22.4433C24.6953 22.2383 26.2188 21.5254 26.4238 21.3447C26.4629 21.3105 26.5752 21.2471 26.668 21.1982C26.9072 21.0762 27.2979 20.8174 27.8252 20.4316C28.3379 20.0557 29.8418 18.6103 30.2666 18.083C30.4229 17.8877 30.584 17.6924 30.6328 17.6435C30.9356 17.3066 31.6826 16.0127 31.8682 15.5098C31.9121 15.3877 31.9902 15.1924 32.0391 15.0703C32.0879 14.9482 32.166 14.709 32.21 14.5332C32.2539 14.3574 32.3125 14.1377 32.3369 14.0449C32.4346 13.6787 32.4981 12.4385 32.4395 11.8769C32.4102 11.5742 32.3662 11.2764 32.3418 11.208C32.3174 11.1445 32.2588 10.959 32.21 10.7978C32.166 10.6367 32.083 10.4267 32.0342 10.3291C31.9805 10.2314 31.9414 10.1142 31.9414 10.0752C31.9414 10.0361 31.9268 9.99218 31.9072 9.98241C31.8828 9.97264 31.8242 9.87987 31.7754 9.77245C31.3945 8.98143 30.4961 8.02929 29.6514 7.52147C29.2412 7.26757 28.7774 7.02831 28.5967 6.96972C28.5186 6.94042 28.3184 6.87206 28.1572 6.81347C27.5176 6.58397 26.6826 6.48143 25.418 6.48143C24.5147 6.47655 24.4854 6.48632 24.5635 6.79882C24.5928 6.90624 24.6367 7.09667 24.666 7.23339C24.6953 7.36522 24.7393 7.541 24.7637 7.62401C24.7881 7.70214 24.832 7.91698 24.8565 8.09764C24.8809 8.27831 24.915 8.44921 24.9297 8.47362C24.9443 8.49804 24.9834 8.791 25.0127 9.12304C25.0469 9.45018 25.0811 9.84569 25.1006 9.99218L25.1299 10.2558L25.7402 10.2607C26.5166 10.2705 26.9561 10.373 27.4346 10.6611C28.0547 11.0371 28.3818 11.5205 28.5772 12.3408C28.6846 12.79 28.6846 12.7998 28.6016 13.2392C28.3916 14.3183 27.835 15.2363 26.7559 16.2666C26.0186 16.9697 25.6231 17.2773 24.9102 17.7021C24.627 17.8682 24.3633 18.0244 24.3242 18.0488C24.2217 18.1123 23.5088 18.459 23.2744 18.5566C23.167 18.6006 23.04 18.6592 22.9961 18.6836C22.9473 18.7129 22.8789 18.7324 22.8399 18.7324C22.8008 18.7324 22.708 18.7568 22.6299 18.791C22.4492 18.8642 21.5996 19.0693 21.1162 19.1572C20.8428 19.2012 20.8574 18.9863 21.1406 18.6885C21.3115 18.5127 21.5313 18.2148 21.6582 17.9756C21.7315 17.8389 21.834 17.6875 21.8779 17.6338C21.9268 17.5801 21.9805 17.5019 22 17.4629C22.0195 17.4238 22.0586 17.3457 22.0928 17.292C22.293 16.9599 22.542 16.501 22.5518 16.4277C22.5567 16.3838 22.6055 16.2764 22.6592 16.1836C22.708 16.0957 22.8447 15.7783 22.957 15.4853C23.0693 15.1875 23.1914 14.8799 23.2256 14.8017C23.2598 14.7187 23.3037 14.6016 23.3184 14.5332C23.3721 14.2744 23.46 13.9668 23.5234 13.8105C23.5625 13.7226 23.5918 13.5908 23.5918 13.5224C23.5918 13.4541 23.6211 13.2832 23.6602 13.1465C23.8848 12.3457 23.9678 10.0849 23.8067 9.04979C23.6455 7.96581 23.377 6.81835 23.1377 6.1494C23.001 5.77831 22.5762 4.83104 22.4932 4.71874C22.4639 4.67968 22.3906 4.54784 22.3223 4.42577C22.0244 3.85936 21.0576 2.76561 20.4375 2.2871C19.7686 1.76952 18.9922 1.38378 18.1231 1.13964C17.5762 0.983387 16.3311 0.866199 15.9746 0.934559ZM16.9756 15.3828C17.9229 15.5488 18.6797 15.9932 19.2559 16.7305C19.6611 17.248 19.9199 17.8096 20.0274 18.3906C20.0567 18.5664 20.0908 18.7519 20.1006 18.8057C20.1299 18.9521 19.9834 19.9482 19.8906 20.1973C19.5537 21.1348 18.8897 21.8379 17.8789 22.331C17.2979 22.6094 17.3076 22.6094 16.5117 22.6045C15.8623 22.6045 15.7061 22.5898 15.4424 22.4971C14.8662 22.2969 14.3389 21.9844 13.9336 21.5937C13.7041 21.3789 13.2891 20.7832 13.2891 20.6758C13.2891 20.6367 13.2598 20.5683 13.2207 20.5146C13.1524 20.4072 13.0449 20.0654 12.918 19.543C12.669 18.4932 13.1914 16.9844 14.0606 16.2568C14.6758 15.7344 15.3154 15.4365 15.9551 15.3682C16.5117 15.3096 16.5459 15.3096 16.9756 15.3828Z" fill="#334155"/>
</svg>
