<svg width="21" height="22" viewBox="0 0 21 22" fill="none" xmlns="http://www.w3.org/2000/svg">
<path d="M17.5268 7.74334L12.933 3.14959C12.8721 3.08867 12.7997 3.04036 12.72 3.00743C12.6403 2.97449 12.555 2.95757 12.4688 2.95764H4.59375C4.24565 2.95764 3.91181 3.09592 3.66567 3.34206C3.41953 3.58821 3.28125 3.92205 3.28125 4.27014V18.7076C3.28125 19.0557 3.41953 19.3896 3.66567 19.6357C3.91181 19.8819 4.24565 20.0201 4.59375 20.0201H16.4062C16.7543 20.0201 17.0882 19.8819 17.3343 19.6357C17.5805 19.3896 17.7188 19.0557 17.7188 18.7076V8.20764C17.7188 8.12144 17.7019 8.03606 17.669 7.9564C17.636 7.87673 17.5877 7.80434 17.5268 7.74334ZM13.125 5.19792L15.4785 7.55139H13.125V5.19792ZM16.4062 18.7076H4.59375V4.27014H11.8125V8.20764C11.8125 8.38169 11.8816 8.54861 12.0047 8.67168C12.1278 8.79475 12.2947 8.86389 12.4688 8.86389H16.4062V18.7076ZM13.125 13.4576C13.125 13.6317 13.0559 13.7986 12.9328 13.9217C12.8097 14.0448 12.6428 14.1139 12.4688 14.1139H11.1562V15.4264C11.1562 15.6004 11.0871 15.7674 10.964 15.8904C10.841 16.0135 10.674 16.0826 10.5 16.0826C10.326 16.0826 10.159 16.0135 10.036 15.8904C9.91289 15.7674 9.84375 15.6004 9.84375 15.4264V14.1139H8.53125C8.3572 14.1139 8.19028 14.0448 8.06721 13.9217C7.94414 13.7986 7.875 13.6317 7.875 13.4576C7.875 13.2836 7.94414 13.1167 8.06721 12.9936C8.19028 12.8705 8.3572 12.8014 8.53125 12.8014H9.84375V11.4889C9.84375 11.3148 9.91289 11.1479 10.036 11.0249C10.159 10.9018 10.326 10.8326 10.5 10.8326C10.674 10.8326 10.841 10.9018 10.964 11.0249C11.0871 11.1479 11.1562 11.3148 11.1562 11.4889V12.8014H12.4688C12.6428 12.8014 12.8097 12.8705 12.9328 12.9936C13.0559 13.1167 13.125 13.2836 13.125 13.4576Z" fill="#EEF2FF"/>
</svg>
